<mxfile host="app.diagrams.net" modified="2022-02-10T23:07:40.788Z" agent="5.0 (Windows NT 10.0; Win64; x64) AppleWebKit/537.36 (KHTML, like Gecko) Chrome/96.0.4664.174 YaBrowser/22.1.2.834 Yowser/2.5 Safari/537.36" etag="f28O9X2TfYZRYGP9s4is" version="16.5.3" type="github" pages="5">
  <diagram id="5Js8xM96uX-ntikz4HbJ" name="Helicopter">
    <mxGraphModel dx="2012" dy="669" grid="1" gridSize="10" guides="1" tooltips="1" connect="1" arrows="1" fold="1" page="1" pageScale="1" pageWidth="827" pageHeight="1169" math="0" shadow="0">
      <root>
        <mxCell id="0" />
        <mxCell id="1" parent="0" />
        <mxCell id="ce4vES51vtT4xLf9OHmg-27" value="OUR Network" style="html=1;outlineConnect=0;whiteSpace=wrap;fillColor=#bac8d3;shape=mxgraph.archimate3.application;appType=location;archiType=square;verticalAlign=bottom;strokeColor=#23445d;" parent="1" vertex="1">
          <mxGeometry x="10" y="130" width="880" height="450" as="geometry" />
        </mxCell>
        <mxCell id="DuTBQhTyPXqUSdnFQR43-1" value="DMZ" style="html=1;outlineConnect=0;whiteSpace=wrap;fillColor=#e1d5e7;shape=mxgraph.archimate3.application;appType=location;archiType=square;verticalAlign=bottom;strokeColor=#9673a6;" parent="1" vertex="1">
          <mxGeometry x="30" y="160" width="190" height="390" as="geometry" />
        </mxCell>
        <mxCell id="DuTBQhTyPXqUSdnFQR43-2" value="SAND" style="html=1;outlineConnect=0;whiteSpace=wrap;fillColor=#fff2cc;shape=mxgraph.archimate3.application;appType=location;archiType=square;verticalAlign=bottom;strokeColor=#d6b656;" parent="1" vertex="1">
          <mxGeometry x="250" y="160" width="190" height="390" as="geometry" />
        </mxCell>
        <mxCell id="DuTBQhTyPXqUSdnFQR43-3" value="PROD" style="html=1;outlineConnect=0;whiteSpace=wrap;fillColor=#d5e8d4;shape=mxgraph.archimate3.application;appType=location;archiType=square;verticalAlign=bottom;strokeColor=#82b366;" parent="1" vertex="1">
          <mxGeometry x="490" y="160" width="370" height="390" as="geometry" />
        </mxCell>
        <mxCell id="ce4vES51vtT4xLf9OHmg-11" style="edgeStyle=orthogonalEdgeStyle;rounded=1;orthogonalLoop=1;jettySize=auto;html=1;entryX=0.25;entryY=0;entryDx=0;entryDy=0;entryPerimeter=0;exitX=1;exitY=0.75;exitDx=0;exitDy=0;exitPerimeter=0;dashed=1;strokeWidth=2;" parent="1" source="DuTBQhTyPXqUSdnFQR43-4" target="DuTBQhTyPXqUSdnFQR43-6" edge="1">
          <mxGeometry relative="1" as="geometry" />
        </mxCell>
        <mxCell id="DuTBQhTyPXqUSdnFQR43-4" value="DRP" style="html=1;outlineConnect=0;whiteSpace=wrap;fillColor=#99ffff;shape=mxgraph.archimate3.application;appType=comp;archiType=square;" parent="1" vertex="1">
          <mxGeometry x="510" y="230" width="150" height="75" as="geometry" />
        </mxCell>
        <mxCell id="ce4vES51vtT4xLf9OHmg-10" style="edgeStyle=orthogonalEdgeStyle;rounded=1;orthogonalLoop=1;jettySize=auto;html=1;entryX=0.5;entryY=1;entryDx=0;entryDy=0;entryPerimeter=0;dashed=1;strokeWidth=2;" parent="1" source="DuTBQhTyPXqUSdnFQR43-5" target="DuTBQhTyPXqUSdnFQR43-4" edge="1">
          <mxGeometry relative="1" as="geometry" />
        </mxCell>
        <mxCell id="DuTBQhTyPXqUSdnFQR43-5" value="Application 1" style="html=1;outlineConnect=0;whiteSpace=wrap;fillColor=#99ffff;shape=mxgraph.archimate3.application;appType=comp;archiType=square;" parent="1" vertex="1">
          <mxGeometry x="510" y="400" width="150" height="75" as="geometry" />
        </mxCell>
        <mxCell id="ce4vES51vtT4xLf9OHmg-12" style="edgeStyle=orthogonalEdgeStyle;rounded=1;orthogonalLoop=1;jettySize=auto;html=1;entryX=1;entryY=0.5;entryDx=0;entryDy=0;entryPerimeter=0;dashed=1;strokeWidth=2;" parent="1" source="DuTBQhTyPXqUSdnFQR43-6" target="DuTBQhTyPXqUSdnFQR43-4" edge="1">
          <mxGeometry relative="1" as="geometry">
            <Array as="points">
              <mxPoint x="752" y="268" />
            </Array>
          </mxGeometry>
        </mxCell>
        <mxCell id="DuTBQhTyPXqUSdnFQR43-6" value="Application 2" style="html=1;outlineConnect=0;whiteSpace=wrap;fillColor=#99ffff;shape=mxgraph.archimate3.application;appType=comp;archiType=square;" parent="1" vertex="1">
          <mxGeometry x="677" y="400" width="150" height="75" as="geometry" />
        </mxCell>
        <mxCell id="ce4vES51vtT4xLf9OHmg-8" style="edgeStyle=orthogonalEdgeStyle;rounded=1;orthogonalLoop=1;jettySize=auto;html=1;dashed=1;strokeWidth=2;exitX=1;exitY=0.25;exitDx=0;exitDy=0;exitPerimeter=0;entryX=0;entryY=0.25;entryDx=0;entryDy=0;entryPerimeter=0;" parent="1" source="ce4vES51vtT4xLf9OHmg-1" target="DuTBQhTyPXqUSdnFQR43-4" edge="1">
          <mxGeometry relative="1" as="geometry" />
        </mxCell>
        <mxCell id="ce4vES51vtT4xLf9OHmg-9" style="edgeStyle=orthogonalEdgeStyle;rounded=1;orthogonalLoop=1;jettySize=auto;html=1;entryX=0.25;entryY=0;entryDx=0;entryDy=0;entryPerimeter=0;dashed=1;strokeWidth=2;" parent="1" target="DuTBQhTyPXqUSdnFQR43-5" edge="1">
          <mxGeometry relative="1" as="geometry">
            <mxPoint x="548" y="300" as="sourcePoint" />
          </mxGeometry>
        </mxCell>
        <mxCell id="ce4vES51vtT4xLf9OHmg-1" value="ETL" style="html=1;outlineConnect=0;whiteSpace=wrap;fillColor=#99ffff;shape=mxgraph.archimate3.application;appType=comp;archiType=square;" parent="1" vertex="1">
          <mxGeometry x="270" y="230" width="150" height="75" as="geometry" />
        </mxCell>
        <mxCell id="ce4vES51vtT4xLf9OHmg-7" style="edgeStyle=orthogonalEdgeStyle;rounded=1;orthogonalLoop=1;jettySize=auto;html=1;dashed=1;strokeWidth=2;" parent="1" source="ce4vES51vtT4xLf9OHmg-2" target="ce4vES51vtT4xLf9OHmg-1" edge="1">
          <mxGeometry relative="1" as="geometry" />
        </mxCell>
        <mxCell id="ce4vES51vtT4xLf9OHmg-2" value="SFTP" style="html=1;outlineConnect=0;whiteSpace=wrap;fillColor=#99ffff;shape=mxgraph.archimate3.application;appType=comp;archiType=square;" parent="1" vertex="1">
          <mxGeometry x="270" y="400" width="150" height="75" as="geometry" />
        </mxCell>
        <mxCell id="ce4vES51vtT4xLf9OHmg-5" style="edgeStyle=orthogonalEdgeStyle;rounded=1;orthogonalLoop=1;jettySize=auto;html=1;entryX=0.5;entryY=0;entryDx=0;entryDy=0;entryPerimeter=0;dashed=1;strokeWidth=2;exitX=1;exitY=0.5;exitDx=0;exitDy=0;exitPerimeter=0;" parent="1" source="ce4vES51vtT4xLf9OHmg-13" target="ce4vES51vtT4xLf9OHmg-4" edge="1">
          <mxGeometry relative="1" as="geometry">
            <mxPoint x="125" y="85" as="sourcePoint" />
          </mxGeometry>
        </mxCell>
        <mxCell id="ce4vES51vtT4xLf9OHmg-6" style="edgeStyle=orthogonalEdgeStyle;rounded=1;orthogonalLoop=1;jettySize=auto;html=1;dashed=1;strokeWidth=2;entryX=0;entryY=0.25;entryDx=0;entryDy=0;entryPerimeter=0;exitX=1;exitY=0.25;exitDx=0;exitDy=0;exitPerimeter=0;" parent="1" source="ce4vES51vtT4xLf9OHmg-4" target="ce4vES51vtT4xLf9OHmg-2" edge="1">
          <mxGeometry relative="1" as="geometry" />
        </mxCell>
        <mxCell id="ce4vES51vtT4xLf9OHmg-4" value="SFTP" style="html=1;outlineConnect=0;whiteSpace=wrap;fillColor=#99ffff;shape=mxgraph.archimate3.application;appType=comp;archiType=square;" parent="1" vertex="1">
          <mxGeometry x="50" y="400" width="150" height="75" as="geometry" />
        </mxCell>
        <mxCell id="ce4vES51vtT4xLf9OHmg-13" value="Branch 1" style="html=1;outlineConnect=0;whiteSpace=wrap;fillColor=#dae8fc;shape=mxgraph.archimate3.application;appType=location;archiType=square;verticalAlign=bottom;strokeColor=#6c8ebf;" parent="1" vertex="1">
          <mxGeometry x="-295" y="160" width="190" height="110" as="geometry" />
        </mxCell>
        <mxCell id="ce4vES51vtT4xLf9OHmg-14" value="Branch 2" style="html=1;outlineConnect=0;whiteSpace=wrap;fillColor=#dae8fc;shape=mxgraph.archimate3.application;appType=location;archiType=square;verticalAlign=bottom;strokeColor=#6c8ebf;" parent="1" vertex="1">
          <mxGeometry x="-295" y="280" width="190" height="110" as="geometry" />
        </mxCell>
        <mxCell id="ce4vES51vtT4xLf9OHmg-15" value="Branch N" style="html=1;outlineConnect=0;whiteSpace=wrap;fillColor=#dae8fc;shape=mxgraph.archimate3.application;appType=location;archiType=square;verticalAlign=bottom;strokeColor=#6c8ebf;" parent="1" vertex="1">
          <mxGeometry x="-295" y="440" width="190" height="110" as="geometry" />
        </mxCell>
        <mxCell id="ce4vES51vtT4xLf9OHmg-16" value="" style="endArrow=none;dashed=1;html=1;rounded=1;strokeWidth=2;" parent="1" edge="1">
          <mxGeometry width="50" height="50" relative="1" as="geometry">
            <mxPoint x="-295" y="420" as="sourcePoint" />
            <mxPoint x="-105" y="420" as="targetPoint" />
          </mxGeometry>
        </mxCell>
        <mxCell id="ce4vES51vtT4xLf9OHmg-17" style="edgeStyle=orthogonalEdgeStyle;rounded=1;orthogonalLoop=1;jettySize=auto;html=1;entryX=0;entryY=0.5;entryDx=0;entryDy=0;entryPerimeter=0;dashed=1;strokeWidth=2;exitX=1;exitY=0.5;exitDx=0;exitDy=0;exitPerimeter=0;" parent="1" source="ce4vES51vtT4xLf9OHmg-14" target="ce4vES51vtT4xLf9OHmg-4" edge="1">
          <mxGeometry relative="1" as="geometry">
            <mxPoint x="-190" y="252.5" as="sourcePoint" />
            <mxPoint x="135" y="410" as="targetPoint" />
          </mxGeometry>
        </mxCell>
        <mxCell id="ce4vES51vtT4xLf9OHmg-18" style="edgeStyle=orthogonalEdgeStyle;rounded=1;orthogonalLoop=1;jettySize=auto;html=1;entryX=0.5;entryY=1;entryDx=0;entryDy=0;entryPerimeter=0;dashed=1;strokeWidth=2;exitX=1;exitY=0.5;exitDx=0;exitDy=0;exitPerimeter=0;" parent="1" source="ce4vES51vtT4xLf9OHmg-15" target="ce4vES51vtT4xLf9OHmg-4" edge="1">
          <mxGeometry relative="1" as="geometry">
            <mxPoint x="-190" y="345" as="sourcePoint" />
            <mxPoint x="60" y="428.75" as="targetPoint" />
          </mxGeometry>
        </mxCell>
        <mxCell id="ce4vES51vtT4xLf9OHmg-19" style="edgeStyle=orthogonalEdgeStyle;rounded=1;orthogonalLoop=1;jettySize=auto;html=1;entryX=1;entryY=0.25;entryDx=0;entryDy=0;entryPerimeter=0;dashed=1;strokeWidth=2;exitX=0;exitY=0.25;exitDx=0;exitDy=0;exitPerimeter=0;" parent="1" source="ce4vES51vtT4xLf9OHmg-4" target="ce4vES51vtT4xLf9OHmg-14" edge="1">
          <mxGeometry relative="1" as="geometry">
            <mxPoint x="-180" y="355" as="sourcePoint" />
            <mxPoint x="70" y="438.75" as="targetPoint" />
            <Array as="points">
              <mxPoint x="-10" y="419" />
              <mxPoint x="-10" y="308" />
            </Array>
          </mxGeometry>
        </mxCell>
        <mxCell id="ce4vES51vtT4xLf9OHmg-20" style="rounded=1;orthogonalLoop=1;jettySize=auto;html=1;entryX=1;entryY=0.25;entryDx=0;entryDy=0;entryPerimeter=0;dashed=1;strokeWidth=2;exitX=0.75;exitY=0;exitDx=0;exitDy=0;exitPerimeter=0;edgeStyle=orthogonalEdgeStyle;" parent="1" source="ce4vES51vtT4xLf9OHmg-4" target="ce4vES51vtT4xLf9OHmg-13" edge="1">
          <mxGeometry relative="1" as="geometry">
            <mxPoint x="60" y="428.75" as="sourcePoint" />
            <mxPoint x="-190" y="317.5" as="targetPoint" />
          </mxGeometry>
        </mxCell>
        <mxCell id="ce4vES51vtT4xLf9OHmg-21" style="rounded=1;orthogonalLoop=1;jettySize=auto;html=1;dashed=1;strokeWidth=2;entryX=1;entryY=0.5;entryDx=0;entryDy=0;entryPerimeter=0;edgeStyle=orthogonalEdgeStyle;" parent="1" source="ce4vES51vtT4xLf9OHmg-2" target="ce4vES51vtT4xLf9OHmg-4" edge="1">
          <mxGeometry relative="1" as="geometry">
            <mxPoint x="210" y="447.5" as="sourcePoint" />
            <mxPoint x="280" y="447.5" as="targetPoint" />
          </mxGeometry>
        </mxCell>
        <mxCell id="ce4vES51vtT4xLf9OHmg-22" style="edgeStyle=orthogonalEdgeStyle;rounded=1;orthogonalLoop=1;jettySize=auto;html=1;dashed=1;strokeWidth=2;entryX=0.25;entryY=0;entryDx=0;entryDy=0;entryPerimeter=0;exitX=0.25;exitY=1;exitDx=0;exitDy=0;exitPerimeter=0;" parent="1" source="ce4vES51vtT4xLf9OHmg-1" target="ce4vES51vtT4xLf9OHmg-2" edge="1">
          <mxGeometry relative="1" as="geometry">
            <mxPoint x="355" y="410" as="sourcePoint" />
            <mxPoint x="355" y="315" as="targetPoint" />
          </mxGeometry>
        </mxCell>
        <mxCell id="ce4vES51vtT4xLf9OHmg-23" style="edgeStyle=orthogonalEdgeStyle;rounded=1;orthogonalLoop=1;jettySize=auto;html=1;entryX=1;entryY=0.25;entryDx=0;entryDy=0;entryPerimeter=0;dashed=1;strokeWidth=2;exitX=0.25;exitY=1;exitDx=0;exitDy=0;exitPerimeter=0;" parent="1" source="ce4vES51vtT4xLf9OHmg-4" target="ce4vES51vtT4xLf9OHmg-15" edge="1">
          <mxGeometry relative="1" as="geometry">
            <mxPoint x="-190" y="505" as="sourcePoint" />
            <mxPoint x="135" y="485" as="targetPoint" />
            <Array as="points">
              <mxPoint x="88" y="480" />
              <mxPoint x="-75" y="480" />
              <mxPoint x="-75" y="468" />
            </Array>
          </mxGeometry>
        </mxCell>
        <mxCell id="ce4vES51vtT4xLf9OHmg-24" style="edgeStyle=orthogonalEdgeStyle;rounded=1;orthogonalLoop=1;jettySize=auto;html=1;dashed=1;strokeWidth=2;exitX=0;exitY=0.5;exitDx=0;exitDy=0;exitPerimeter=0;entryX=1;entryY=0.5;entryDx=0;entryDy=0;entryPerimeter=0;" parent="1" source="DuTBQhTyPXqUSdnFQR43-4" target="ce4vES51vtT4xLf9OHmg-1" edge="1">
          <mxGeometry relative="1" as="geometry">
            <mxPoint x="430" y="258.75" as="sourcePoint" />
            <mxPoint x="520" y="258.75" as="targetPoint" />
          </mxGeometry>
        </mxCell>
      </root>
    </mxGraphModel>
  </diagram>
  <diagram id="UR9R2zEvNTpCvYJKAUBL" name="Brahcn-BUS">
    <mxGraphModel dx="2012" dy="669" grid="1" gridSize="10" guides="1" tooltips="1" connect="1" arrows="1" fold="1" page="1" pageScale="1" pageWidth="827" pageHeight="1169" math="0" shadow="0">
      <root>
        <mxCell id="PuMydnl0DKf3A2h9iFoI-0" />
        <mxCell id="PuMydnl0DKf3A2h9iFoI-1" parent="PuMydnl0DKf3A2h9iFoI-0" />
        <mxCell id="G1CGEG9tyHsHC_gJ3wwg-0" value="OUR Network" style="html=1;outlineConnect=0;whiteSpace=wrap;fillColor=#bac8d3;shape=mxgraph.archimate3.application;appType=location;archiType=square;verticalAlign=bottom;strokeColor=#23445d;" vertex="1" parent="PuMydnl0DKf3A2h9iFoI-1">
          <mxGeometry x="110" y="130" width="210" height="270" as="geometry" />
        </mxCell>
        <mxCell id="G1CGEG9tyHsHC_gJ3wwg-1" value="DMZ" style="html=1;outlineConnect=0;whiteSpace=wrap;fillColor=#e1d5e7;shape=mxgraph.archimate3.application;appType=location;archiType=square;verticalAlign=bottom;strokeColor=#9673a6;" vertex="1" parent="PuMydnl0DKf3A2h9iFoI-1">
          <mxGeometry x="130" y="160" width="180" height="210" as="geometry" />
        </mxCell>
        <mxCell id="4qQT8QsSA_eOiGfTwrVq-0" value="BUS" style="html=1;outlineConnect=0;whiteSpace=wrap;fillColor=#99ffff;shape=mxgraph.archimate3.application;appType=comp;archiType=square;" vertex="1" parent="PuMydnl0DKf3A2h9iFoI-1">
          <mxGeometry x="150" y="210" width="150" height="110" as="geometry" />
        </mxCell>
        <mxCell id="4qQT8QsSA_eOiGfTwrVq-1" value="Branch N" style="html=1;outlineConnect=0;whiteSpace=wrap;fillColor=#dae8fc;shape=mxgraph.archimate3.application;appType=location;archiType=square;verticalAlign=bottom;strokeColor=#6c8ebf;" vertex="1" parent="PuMydnl0DKf3A2h9iFoI-1">
          <mxGeometry x="-220" y="210" width="190" height="110" as="geometry" />
        </mxCell>
        <mxCell id="G1CGEG9tyHsHC_gJ3wwg-4" value="VPN" style="rounded=0;whiteSpace=wrap;html=1;fontSize=20;verticalAlign=top;fillColor=#40D2FF;strokeColor=#36393d;" vertex="1" parent="PuMydnl0DKf3A2h9iFoI-1">
          <mxGeometry x="-30" y="210" width="160" height="110" as="geometry" />
        </mxCell>
        <mxCell id="G1CGEG9tyHsHC_gJ3wwg-5" style="edgeStyle=orthogonalEdgeStyle;rounded=1;orthogonalLoop=1;jettySize=auto;html=1;fontSize=20;startArrow=oval;startFill=1;endArrow=oval;endFill=1;strokeWidth=2;" edge="1" parent="PuMydnl0DKf3A2h9iFoI-1" source="4qQT8QsSA_eOiGfTwrVq-1" target="4qQT8QsSA_eOiGfTwrVq-0">
          <mxGeometry relative="1" as="geometry" />
        </mxCell>
        <mxCell id="G1CGEG9tyHsHC_gJ3wwg-7" value="Crypto sign chanel" style="whiteSpace=wrap;html=1;rounded=1;arcSize=50;align=center;verticalAlign=middle;strokeWidth=1;autosize=1;spacing=4;treeFolding=1;treeMoving=1;newEdgeStyle={&quot;edgeStyle&quot;:&quot;entityRelationEdgeStyle&quot;,&quot;startArrow&quot;:&quot;none&quot;,&quot;endArrow&quot;:&quot;none&quot;,&quot;segment&quot;:10,&quot;curved&quot;:1};labelBackgroundColor=none;fontSize=20;fillColor=#99FFFF;" vertex="1" parent="PuMydnl0DKf3A2h9iFoI-1">
          <mxGeometry x="-60" y="330" width="170" height="55" as="geometry" />
        </mxCell>
        <mxCell id="G1CGEG9tyHsHC_gJ3wwg-8" value="" style="edgeStyle=entityRelationEdgeStyle;startArrow=none;endArrow=none;segment=10;curved=1;rounded=1;fontSize=20;strokeWidth=2;dashed=1;dashPattern=1 4;" edge="1" target="G1CGEG9tyHsHC_gJ3wwg-7" parent="PuMydnl0DKf3A2h9iFoI-1">
          <mxGeometry relative="1" as="geometry">
            <mxPoint x="130" y="265" as="sourcePoint" />
          </mxGeometry>
        </mxCell>
      </root>
    </mxGraphModel>
  </diagram>
  <diagram id="ZhPS9kivt5W4ExH54bEQ" name="BUS-BUS">
    <mxGraphModel dx="2249" dy="803" grid="1" gridSize="10" guides="1" tooltips="1" connect="1" arrows="1" fold="1" page="1" pageScale="1" pageWidth="827" pageHeight="1169" math="0" shadow="0">
      <root>
        <mxCell id="qkHdtjoHPol0a8iuhQAV-0" />
        <mxCell id="qkHdtjoHPol0a8iuhQAV-1" parent="qkHdtjoHPol0a8iuhQAV-0" />
        <mxCell id="ZSimHyaGAGFVubnEd_To-0" value="OUR Network" style="html=1;outlineConnect=0;whiteSpace=wrap;fillColor=#bac8d3;shape=mxgraph.archimate3.application;appType=location;archiType=square;verticalAlign=bottom;strokeColor=#23445d;" vertex="1" parent="qkHdtjoHPol0a8iuhQAV-1">
          <mxGeometry x="110" y="180" width="450" height="220" as="geometry" />
        </mxCell>
        <mxCell id="4ltIQ9NvQ39SPQzfYKnu-1" value="DMZ" style="html=1;outlineConnect=0;whiteSpace=wrap;fillColor=#e1d5e7;shape=mxgraph.archimate3.application;appType=location;archiType=square;verticalAlign=bottom;strokeColor=#9673a6;" vertex="1" parent="qkHdtjoHPol0a8iuhQAV-1">
          <mxGeometry x="130" y="190" width="180" height="180" as="geometry" />
        </mxCell>
        <mxCell id="4ltIQ9NvQ39SPQzfYKnu-2" value="BUS" style="html=1;outlineConnect=0;whiteSpace=wrap;fillColor=#99ffff;shape=mxgraph.archimate3.application;appType=comp;archiType=square;" vertex="1" parent="qkHdtjoHPol0a8iuhQAV-1">
          <mxGeometry x="150" y="210" width="150" height="110" as="geometry" />
        </mxCell>
        <mxCell id="4ltIQ9NvQ39SPQzfYKnu-4" value="Crypto sign chanel" style="whiteSpace=wrap;html=1;rounded=1;arcSize=50;align=center;verticalAlign=middle;strokeWidth=1;autosize=1;spacing=4;treeFolding=1;treeMoving=1;newEdgeStyle={&quot;edgeStyle&quot;:&quot;entityRelationEdgeStyle&quot;,&quot;startArrow&quot;:&quot;none&quot;,&quot;endArrow&quot;:&quot;none&quot;,&quot;segment&quot;:10,&quot;curved&quot;:1};labelBackgroundColor=none;fontSize=20;fillColor=#99FFFF;" vertex="1" parent="qkHdtjoHPol0a8iuhQAV-1">
          <mxGeometry x="-60" y="370" width="170" height="55" as="geometry" />
        </mxCell>
        <mxCell id="4ltIQ9NvQ39SPQzfYKnu-5" value="" style="edgeStyle=entityRelationEdgeStyle;startArrow=none;endArrow=none;segment=10;curved=1;rounded=1;fontSize=20;strokeWidth=2;dashed=1;dashPattern=1 4;" edge="1" parent="qkHdtjoHPol0a8iuhQAV-1" target="4ltIQ9NvQ39SPQzfYKnu-4">
          <mxGeometry relative="1" as="geometry">
            <mxPoint x="340" y="265" as="sourcePoint" />
          </mxGeometry>
        </mxCell>
        <mxCell id="552MFL_iQ7LrrHoMGn7z-1" value="SAND" style="html=1;outlineConnect=0;whiteSpace=wrap;fillColor=#fff2cc;shape=mxgraph.archimate3.application;appType=location;archiType=square;verticalAlign=bottom;strokeColor=#d6b656;" vertex="1" parent="qkHdtjoHPol0a8iuhQAV-1">
          <mxGeometry x="360" y="190" width="190" height="180" as="geometry" />
        </mxCell>
        <mxCell id="b4hMR9vcUEeosLUDfMEp-0" value="BUS" style="html=1;outlineConnect=0;whiteSpace=wrap;fillColor=#99ffff;shape=mxgraph.archimate3.application;appType=comp;archiType=square;" vertex="1" parent="qkHdtjoHPol0a8iuhQAV-1">
          <mxGeometry x="380" y="210" width="150" height="110" as="geometry" />
        </mxCell>
        <mxCell id="4ltIQ9NvQ39SPQzfYKnu-3" style="rounded=1;orthogonalLoop=1;jettySize=auto;html=1;fontSize=20;startArrow=oval;startFill=1;endArrow=oval;endFill=1;strokeWidth=2;exitX=1;exitY=0.5;exitDx=0;exitDy=0;exitPerimeter=0;" edge="1" parent="qkHdtjoHPol0a8iuhQAV-1" target="b4hMR9vcUEeosLUDfMEp-0" source="4ltIQ9NvQ39SPQzfYKnu-2">
          <mxGeometry relative="1" as="geometry">
            <mxPoint x="-30" y="265" as="sourcePoint" />
          </mxGeometry>
        </mxCell>
      </root>
    </mxGraphModel>
  </diagram>
  <diagram id="C1TXIgcjVpy3knbPH4wV" name="BUS-ETL">
    <mxGraphModel dx="2181" dy="765" grid="1" gridSize="10" guides="1" tooltips="1" connect="1" arrows="1" fold="1" page="1" pageScale="1" pageWidth="827" pageHeight="1169" math="0" shadow="0">
      <root>
        <mxCell id="Gfzw7XG1-vFsZEF0CrEu-0" />
        <mxCell id="Gfzw7XG1-vFsZEF0CrEu-1" parent="Gfzw7XG1-vFsZEF0CrEu-0" />
        <mxCell id="2567PQHCnR7x3LH42jP_-1" value="" style="html=1;outlineConnect=0;whiteSpace=wrap;fillColor=#cdeb8b;shape=mxgraph.archimate3.application;appType=serv;archiType=rounded;labelBackgroundColor=none;fontSize=20;strokeColor=#36393d;" vertex="1" parent="Gfzw7XG1-vFsZEF0CrEu-1">
          <mxGeometry x="570" y="180" width="160" height="220" as="geometry" />
        </mxCell>
        <mxCell id="2567PQHCnR7x3LH42jP_-0" value="Check Service" style="html=1;outlineConnect=0;whiteSpace=wrap;fillColor=#ffff88;shape=mxgraph.archimate3.application;appType=serv;archiType=rounded;labelBackgroundColor=none;fontSize=20;strokeColor=#36393d;verticalAlign=top;" vertex="1" parent="Gfzw7XG1-vFsZEF0CrEu-1">
          <mxGeometry x="320" width="400" height="160" as="geometry" />
        </mxCell>
        <mxCell id="gcaHYqfPDGGWSyMejgf--0" value="OUR Network" style="html=1;outlineConnect=0;whiteSpace=wrap;fillColor=#bac8d3;shape=mxgraph.archimate3.application;appType=location;archiType=square;verticalAlign=bottom;strokeColor=#23445d;" vertex="1" parent="Gfzw7XG1-vFsZEF0CrEu-1">
          <mxGeometry x="110" y="180" width="450" height="220" as="geometry" />
        </mxCell>
        <mxCell id="gcaHYqfPDGGWSyMejgf--5" value="SAND" style="html=1;outlineConnect=0;whiteSpace=wrap;fillColor=#fff2cc;shape=mxgraph.archimate3.application;appType=location;archiType=square;verticalAlign=bottom;strokeColor=#d6b656;" vertex="1" parent="Gfzw7XG1-vFsZEF0CrEu-1">
          <mxGeometry x="130" y="190" width="420" height="180" as="geometry" />
        </mxCell>
        <mxCell id="gcaHYqfPDGGWSyMejgf--2" value="BUS" style="html=1;outlineConnect=0;whiteSpace=wrap;fillColor=#99ffff;shape=mxgraph.archimate3.application;appType=comp;archiType=square;" vertex="1" parent="Gfzw7XG1-vFsZEF0CrEu-1">
          <mxGeometry x="150" y="210" width="150" height="110" as="geometry" />
        </mxCell>
        <mxCell id="gcaHYqfPDGGWSyMejgf--3" value="Crypto sign chanel" style="whiteSpace=wrap;html=1;rounded=1;arcSize=50;align=center;verticalAlign=middle;strokeWidth=1;autosize=1;spacing=4;treeFolding=1;treeMoving=1;newEdgeStyle={&quot;edgeStyle&quot;:&quot;entityRelationEdgeStyle&quot;,&quot;startArrow&quot;:&quot;none&quot;,&quot;endArrow&quot;:&quot;none&quot;,&quot;segment&quot;:10,&quot;curved&quot;:1};labelBackgroundColor=none;fontSize=20;fillColor=#99FFFF;" vertex="1" parent="Gfzw7XG1-vFsZEF0CrEu-1">
          <mxGeometry x="-60" y="370" width="170" height="55" as="geometry" />
        </mxCell>
        <mxCell id="gcaHYqfPDGGWSyMejgf--4" value="" style="edgeStyle=entityRelationEdgeStyle;startArrow=none;endArrow=none;segment=10;curved=1;rounded=1;fontSize=20;strokeWidth=2;dashed=1;dashPattern=1 4;" edge="1" parent="Gfzw7XG1-vFsZEF0CrEu-1" target="gcaHYqfPDGGWSyMejgf--3">
          <mxGeometry relative="1" as="geometry">
            <mxPoint x="340" y="260" as="sourcePoint" />
          </mxGeometry>
        </mxCell>
        <mxCell id="gcaHYqfPDGGWSyMejgf--6" value="ETL" style="html=1;outlineConnect=0;whiteSpace=wrap;fillColor=#99ffff;shape=mxgraph.archimate3.application;appType=comp;archiType=square;" vertex="1" parent="Gfzw7XG1-vFsZEF0CrEu-1">
          <mxGeometry x="380" y="210" width="150" height="110" as="geometry" />
        </mxCell>
        <mxCell id="SzUARMVlJ-v0ha5pthck-5" value="" style="edgeStyle=orthogonalEdgeStyle;rounded=1;orthogonalLoop=1;jettySize=auto;html=1;dashed=1;dashPattern=1 4;fontSize=20;startArrow=oval;startFill=1;endArrow=classic;endFill=1;strokeWidth=2;curved=1;entryX=1;entryY=0.5;entryDx=0;entryDy=0;exitX=0.5;exitY=0;exitDx=0;exitDy=0;exitPerimeter=0;" edge="1" parent="Gfzw7XG1-vFsZEF0CrEu-1" source="gcaHYqfPDGGWSyMejgf--6" target="SzUARMVlJ-v0ha5pthck-4">
          <mxGeometry relative="1" as="geometry">
            <mxPoint x="460" y="130" as="sourcePoint" />
          </mxGeometry>
        </mxCell>
        <mxCell id="SzUARMVlJ-v0ha5pthck-7" value="" style="edgeStyle=orthogonalEdgeStyle;curved=1;rounded=1;orthogonalLoop=1;jettySize=auto;html=1;dashed=1;dashPattern=1 4;fontSize=20;startArrow=oval;startFill=1;endArrow=classic;endFill=1;strokeWidth=2;" edge="1" parent="Gfzw7XG1-vFsZEF0CrEu-1" source="SzUARMVlJ-v0ha5pthck-4" target="SzUARMVlJ-v0ha5pthck-6">
          <mxGeometry relative="1" as="geometry" />
        </mxCell>
        <mxCell id="SzUARMVlJ-v0ha5pthck-9" value="" style="edgeStyle=orthogonalEdgeStyle;curved=1;rounded=1;orthogonalLoop=1;jettySize=auto;html=1;dashed=1;dashPattern=1 4;fontSize=20;startArrow=oval;startFill=1;endArrow=classic;endFill=1;strokeWidth=2;exitX=1;exitY=0.5;exitDx=0;exitDy=0;" edge="1" parent="Gfzw7XG1-vFsZEF0CrEu-1" source="SzUARMVlJ-v0ha5pthck-6" target="SzUARMVlJ-v0ha5pthck-8">
          <mxGeometry relative="1" as="geometry" />
        </mxCell>
        <mxCell id="SzUARMVlJ-v0ha5pthck-4" value="Crypto" style="whiteSpace=wrap;html=1;rounded=1;arcSize=50;align=center;verticalAlign=middle;strokeWidth=1;autosize=1;spacing=4;treeFolding=1;treeMoving=1;newEdgeStyle={&quot;edgeStyle&quot;:&quot;entityRelationEdgeStyle&quot;,&quot;startArrow&quot;:&quot;none&quot;,&quot;endArrow&quot;:&quot;none&quot;,&quot;segment&quot;:10,&quot;curved&quot;:1};labelBackgroundColor=none;fontSize=20;fillColor=#ffff88;strokeColor=#36393d;" vertex="1" parent="Gfzw7XG1-vFsZEF0CrEu-1">
          <mxGeometry x="334" y="110" width="86" height="40" as="geometry" />
        </mxCell>
        <mxCell id="SzUARMVlJ-v0ha5pthck-6" value="Sign" style="whiteSpace=wrap;html=1;rounded=1;arcSize=50;align=center;verticalAlign=middle;strokeWidth=1;autosize=1;spacing=4;treeFolding=1;treeMoving=1;newEdgeStyle={&quot;edgeStyle&quot;:&quot;entityRelationEdgeStyle&quot;,&quot;startArrow&quot;:&quot;none&quot;,&quot;endArrow&quot;:&quot;none&quot;,&quot;segment&quot;:10,&quot;curved&quot;:1};labelBackgroundColor=none;fontSize=20;fillColor=#ffff88;strokeColor=#36393d;" vertex="1" parent="Gfzw7XG1-vFsZEF0CrEu-1">
          <mxGeometry x="334" y="40" width="86" height="40" as="geometry" />
        </mxCell>
        <mxCell id="SzUARMVlJ-v0ha5pthck-11" value="" style="edgeStyle=orthogonalEdgeStyle;curved=1;rounded=1;orthogonalLoop=1;jettySize=auto;html=1;dashed=1;dashPattern=1 4;fontSize=20;startArrow=oval;startFill=1;endArrow=classic;endFill=1;strokeWidth=2;exitX=1;exitY=0.5;exitDx=0;exitDy=0;entryX=0;entryY=0.5;entryDx=0;entryDy=0;" edge="1" parent="Gfzw7XG1-vFsZEF0CrEu-1" source="SzUARMVlJ-v0ha5pthck-8" target="SzUARMVlJ-v0ha5pthck-10">
          <mxGeometry relative="1" as="geometry" />
        </mxCell>
        <mxCell id="SzUARMVlJ-v0ha5pthck-8" value="Schema" style="whiteSpace=wrap;html=1;rounded=1;arcSize=50;align=center;verticalAlign=middle;strokeWidth=1;autosize=1;spacing=4;treeFolding=1;treeMoving=1;newEdgeStyle={&quot;edgeStyle&quot;:&quot;entityRelationEdgeStyle&quot;,&quot;startArrow&quot;:&quot;none&quot;,&quot;endArrow&quot;:&quot;none&quot;,&quot;segment&quot;:10,&quot;curved&quot;:1};labelBackgroundColor=none;fontSize=20;fillColor=#ffff88;strokeColor=#36393d;" vertex="1" parent="Gfzw7XG1-vFsZEF0CrEu-1">
          <mxGeometry x="477" y="40" width="86" height="40" as="geometry" />
        </mxCell>
        <mxCell id="SzUARMVlJ-v0ha5pthck-12" value="Threat" style="whiteSpace=wrap;html=1;rounded=1;arcSize=50;align=center;verticalAlign=middle;strokeWidth=1;autosize=1;spacing=4;treeFolding=1;treeMoving=1;newEdgeStyle={&quot;edgeStyle&quot;:&quot;entityRelationEdgeStyle&quot;,&quot;startArrow&quot;:&quot;none&quot;,&quot;endArrow&quot;:&quot;none&quot;,&quot;segment&quot;:10,&quot;curved&quot;:1};labelBackgroundColor=none;fontSize=20;fillColor=#ffff88;strokeColor=#36393d;" vertex="1" parent="Gfzw7XG1-vFsZEF0CrEu-1">
          <mxGeometry x="607" y="110.00000000000001" width="86" height="40" as="geometry" />
        </mxCell>
        <mxCell id="SzUARMVlJ-v0ha5pthck-17" value="" style="edgeStyle=orthogonalEdgeStyle;curved=1;rounded=1;orthogonalLoop=1;jettySize=auto;html=1;dashed=1;dashPattern=1 4;fontSize=20;startArrow=oval;startFill=1;endArrow=classic;endFill=1;strokeWidth=2;" edge="1" parent="Gfzw7XG1-vFsZEF0CrEu-1" source="SzUARMVlJ-v0ha5pthck-14" target="SzUARMVlJ-v0ha5pthck-16">
          <mxGeometry relative="1" as="geometry" />
        </mxCell>
        <mxCell id="SzUARMVlJ-v0ha5pthck-14" value="Extract" style="whiteSpace=wrap;html=1;rounded=1;arcSize=50;align=center;verticalAlign=middle;strokeWidth=1;autosize=1;spacing=4;treeFolding=1;treeMoving=1;newEdgeStyle={&quot;edgeStyle&quot;:&quot;entityRelationEdgeStyle&quot;,&quot;startArrow&quot;:&quot;none&quot;,&quot;endArrow&quot;:&quot;none&quot;,&quot;segment&quot;:10,&quot;curved&quot;:1};labelBackgroundColor=none;fontSize=20;fillColor=#cdeb8b;strokeColor=#36393d;" vertex="1" parent="Gfzw7XG1-vFsZEF0CrEu-1">
          <mxGeometry x="580" y="200" width="130" height="40" as="geometry" />
        </mxCell>
        <mxCell id="SzUARMVlJ-v0ha5pthck-19" value="" style="edgeStyle=orthogonalEdgeStyle;curved=1;rounded=1;orthogonalLoop=1;jettySize=auto;html=1;dashed=1;dashPattern=1 4;fontSize=20;startArrow=oval;startFill=1;endArrow=classic;endFill=1;strokeWidth=2;" edge="1" parent="Gfzw7XG1-vFsZEF0CrEu-1" source="SzUARMVlJ-v0ha5pthck-16" target="SzUARMVlJ-v0ha5pthck-18">
          <mxGeometry relative="1" as="geometry" />
        </mxCell>
        <mxCell id="SzUARMVlJ-v0ha5pthck-16" value="Transform" style="whiteSpace=wrap;html=1;rounded=1;arcSize=50;align=center;verticalAlign=middle;strokeWidth=1;autosize=1;spacing=4;treeFolding=1;treeMoving=1;newEdgeStyle={&quot;edgeStyle&quot;:&quot;entityRelationEdgeStyle&quot;,&quot;startArrow&quot;:&quot;none&quot;,&quot;endArrow&quot;:&quot;none&quot;,&quot;segment&quot;:10,&quot;curved&quot;:1};labelBackgroundColor=none;fontSize=20;fillColor=#cdeb8b;strokeColor=#36393d;" vertex="1" parent="Gfzw7XG1-vFsZEF0CrEu-1">
          <mxGeometry x="580" y="270" width="130" height="40" as="geometry" />
        </mxCell>
        <mxCell id="SzUARMVlJ-v0ha5pthck-18" value="Prepare" style="whiteSpace=wrap;html=1;rounded=1;arcSize=50;align=center;verticalAlign=middle;strokeWidth=1;autosize=1;spacing=4;treeFolding=1;treeMoving=1;newEdgeStyle={&quot;edgeStyle&quot;:&quot;entityRelationEdgeStyle&quot;,&quot;startArrow&quot;:&quot;none&quot;,&quot;endArrow&quot;:&quot;none&quot;,&quot;segment&quot;:10,&quot;curved&quot;:1};labelBackgroundColor=none;fontSize=20;fillColor=#cdeb8b;strokeColor=#36393d;" vertex="1" parent="Gfzw7XG1-vFsZEF0CrEu-1">
          <mxGeometry x="580" y="350" width="130" height="40" as="geometry" />
        </mxCell>
        <mxCell id="SzUARMVlJ-v0ha5pthck-10" value="Body" style="whiteSpace=wrap;html=1;rounded=1;arcSize=50;align=center;verticalAlign=middle;strokeWidth=1;autosize=1;spacing=4;treeFolding=1;treeMoving=1;newEdgeStyle={&quot;edgeStyle&quot;:&quot;entityRelationEdgeStyle&quot;,&quot;startArrow&quot;:&quot;none&quot;,&quot;endArrow&quot;:&quot;none&quot;,&quot;segment&quot;:10,&quot;curved&quot;:1};labelBackgroundColor=none;fontSize=20;fillColor=#ffff88;strokeColor=#36393d;" vertex="1" parent="Gfzw7XG1-vFsZEF0CrEu-1">
          <mxGeometry x="607" y="40" width="86" height="40" as="geometry" />
        </mxCell>
        <mxCell id="2567PQHCnR7x3LH42jP_-3" style="rounded=1;orthogonalLoop=1;jettySize=auto;html=1;entryX=0.5;entryY=0;entryDx=0;entryDy=0;dashed=1;dashPattern=1 4;fontSize=20;startArrow=oval;startFill=1;endArrow=classic;endFill=1;strokeWidth=2;exitX=0.5;exitY=1;exitDx=0;exitDy=0;edgeStyle=orthogonalEdgeStyle;curved=1;" edge="1" parent="Gfzw7XG1-vFsZEF0CrEu-1" source="SzUARMVlJ-v0ha5pthck-12" target="SzUARMVlJ-v0ha5pthck-14">
          <mxGeometry relative="1" as="geometry" />
        </mxCell>
        <mxCell id="SzUARMVlJ-v0ha5pthck-13" value="" style="edgeStyle=orthogonalEdgeStyle;curved=1;rounded=1;orthogonalLoop=1;jettySize=auto;html=1;dashed=1;dashPattern=1 4;fontSize=20;startArrow=oval;startFill=1;endArrow=classic;endFill=1;strokeWidth=2;" edge="1" parent="Gfzw7XG1-vFsZEF0CrEu-1" source="SzUARMVlJ-v0ha5pthck-10" target="SzUARMVlJ-v0ha5pthck-12">
          <mxGeometry relative="1" as="geometry" />
        </mxCell>
        <mxCell id="2567PQHCnR7x3LH42jP_-4" value="" style="html=1;outlineConnect=0;whiteSpace=wrap;fillColor=#cdeb8b;shape=mxgraph.archimate3.application;appType=serv;archiType=rounded;labelBackgroundColor=none;fontSize=20;strokeColor=#36393d;" vertex="1" parent="Gfzw7XG1-vFsZEF0CrEu-1">
          <mxGeometry x="460" y="280" width="60" height="30" as="geometry" />
        </mxCell>
        <mxCell id="2567PQHCnR7x3LH42jP_-5" value="" style="html=1;outlineConnect=0;whiteSpace=wrap;fillColor=#ffff88;shape=mxgraph.archimate3.application;appType=serv;archiType=rounded;labelBackgroundColor=none;fontSize=20;strokeColor=#36393d;verticalAlign=top;" vertex="1" parent="Gfzw7XG1-vFsZEF0CrEu-1">
          <mxGeometry x="390" y="220" width="61" height="30" as="geometry" />
        </mxCell>
        <mxCell id="2567PQHCnR7x3LH42jP_-6" style="rounded=1;orthogonalLoop=1;jettySize=auto;html=1;fontSize=20;startArrow=oval;startFill=1;endArrow=oval;endFill=1;strokeWidth=2;entryX=0.5;entryY=1;entryDx=0;entryDy=0;entryPerimeter=0;exitX=0;exitY=0.5;exitDx=0;exitDy=0;exitPerimeter=0;edgeStyle=orthogonalEdgeStyle;curved=1;" edge="1" parent="Gfzw7XG1-vFsZEF0CrEu-1" source="2567PQHCnR7x3LH42jP_-4" target="2567PQHCnR7x3LH42jP_-5">
          <mxGeometry relative="1" as="geometry">
            <mxPoint x="380" y="260" as="sourcePoint" />
            <mxPoint x="390" y="275" as="targetPoint" />
          </mxGeometry>
        </mxCell>
        <mxCell id="gcaHYqfPDGGWSyMejgf--7" style="rounded=1;orthogonalLoop=1;jettySize=auto;html=1;fontSize=20;startArrow=oval;startFill=1;endArrow=oval;endFill=1;strokeWidth=2;exitX=1;exitY=0.5;exitDx=0;exitDy=0;exitPerimeter=0;entryX=0;entryY=0.5;entryDx=0;entryDy=0;entryPerimeter=0;edgeStyle=orthogonalEdgeStyle;curved=1;" edge="1" parent="Gfzw7XG1-vFsZEF0CrEu-1" source="gcaHYqfPDGGWSyMejgf--2" target="2567PQHCnR7x3LH42jP_-5">
          <mxGeometry relative="1" as="geometry">
            <mxPoint x="-30" y="265" as="sourcePoint" />
          </mxGeometry>
        </mxCell>
      </root>
    </mxGraphModel>
  </diagram>
  <diagram id="3Tj5Tf0SCRolrNGu61E2" name="ETL-DWH">
    <mxGraphModel dx="2012" dy="669" grid="1" gridSize="10" guides="1" tooltips="1" connect="1" arrows="1" fold="1" page="1" pageScale="1" pageWidth="827" pageHeight="1169" math="0" shadow="0">
      <root>
        <mxCell id="PQhwK7lnVZrkcBwygBA0-0" />
        <mxCell id="PQhwK7lnVZrkcBwygBA0-1" parent="PQhwK7lnVZrkcBwygBA0-0" />
        <mxCell id="OgTv5IMcnwN7U33T0d0k-0" value="OUR Network" style="html=1;outlineConnect=0;whiteSpace=wrap;fillColor=#bac8d3;shape=mxgraph.archimate3.application;appType=location;archiType=square;verticalAlign=bottom;strokeColor=#23445d;" vertex="1" parent="PQhwK7lnVZrkcBwygBA0-1">
          <mxGeometry x="110" y="180" width="450" height="220" as="geometry" />
        </mxCell>
        <mxCell id="R5ZYdigww12FuL7uxKYt-0" value="PROD" style="html=1;outlineConnect=0;whiteSpace=wrap;fillColor=#d5e8d4;shape=mxgraph.archimate3.application;appType=location;archiType=square;verticalAlign=bottom;strokeColor=#82b366;" vertex="1" parent="PQhwK7lnVZrkcBwygBA0-1">
          <mxGeometry x="370" y="190" width="180" height="180" as="geometry" />
        </mxCell>
        <mxCell id="OgTv5IMcnwN7U33T0d0k-1" value="SAND" style="html=1;outlineConnect=0;whiteSpace=wrap;fillColor=#fff2cc;shape=mxgraph.archimate3.application;appType=location;archiType=square;verticalAlign=bottom;strokeColor=#d6b656;" vertex="1" parent="PQhwK7lnVZrkcBwygBA0-1">
          <mxGeometry x="130" y="190" width="180" height="180" as="geometry" />
        </mxCell>
        <mxCell id="OgTv5IMcnwN7U33T0d0k-2" value="ETL" style="html=1;outlineConnect=0;whiteSpace=wrap;fillColor=#99ffff;shape=mxgraph.archimate3.application;appType=comp;archiType=square;" vertex="1" parent="PQhwK7lnVZrkcBwygBA0-1">
          <mxGeometry x="150" y="210" width="150" height="110" as="geometry" />
        </mxCell>
        <mxCell id="OgTv5IMcnwN7U33T0d0k-3" value="Crypto sign chanel" style="whiteSpace=wrap;html=1;rounded=1;arcSize=50;align=center;verticalAlign=middle;strokeWidth=1;autosize=1;spacing=4;treeFolding=1;treeMoving=1;newEdgeStyle={&quot;edgeStyle&quot;:&quot;entityRelationEdgeStyle&quot;,&quot;startArrow&quot;:&quot;none&quot;,&quot;endArrow&quot;:&quot;none&quot;,&quot;segment&quot;:10,&quot;curved&quot;:1};labelBackgroundColor=none;fontSize=20;fillColor=#99FFFF;" vertex="1" parent="PQhwK7lnVZrkcBwygBA0-1">
          <mxGeometry x="-60" y="370" width="170" height="55" as="geometry" />
        </mxCell>
        <mxCell id="OgTv5IMcnwN7U33T0d0k-4" value="" style="edgeStyle=entityRelationEdgeStyle;startArrow=none;endArrow=none;segment=10;curved=1;rounded=1;fontSize=20;strokeWidth=2;dashed=1;dashPattern=1 4;" edge="1" parent="PQhwK7lnVZrkcBwygBA0-1" target="OgTv5IMcnwN7U33T0d0k-3">
          <mxGeometry relative="1" as="geometry">
            <mxPoint x="330" y="290" as="sourcePoint" />
          </mxGeometry>
        </mxCell>
        <mxCell id="OgTv5IMcnwN7U33T0d0k-5" value="DWH" style="html=1;outlineConnect=0;whiteSpace=wrap;fillColor=#99ffff;shape=mxgraph.archimate3.application;appType=comp;archiType=square;" vertex="1" parent="PQhwK7lnVZrkcBwygBA0-1">
          <mxGeometry x="380" y="210" width="150" height="110" as="geometry" />
        </mxCell>
        <mxCell id="OgTv5IMcnwN7U33T0d0k-7" value="" style="edgeStyle=orthogonalEdgeStyle;rounded=1;orthogonalLoop=1;jettySize=auto;html=1;dashed=1;dashPattern=1 4;fontSize=20;startArrow=oval;startFill=1;endArrow=classic;endFill=1;strokeWidth=2;curved=1;" edge="1" parent="PQhwK7lnVZrkcBwygBA0-1" source="OgTv5IMcnwN7U33T0d0k-10">
          <mxGeometry relative="1" as="geometry">
            <mxPoint x="380" y="60" as="targetPoint" />
          </mxGeometry>
        </mxCell>
        <mxCell id="OgTv5IMcnwN7U33T0d0k-18" value="" style="edgeStyle=orthogonalEdgeStyle;curved=1;rounded=1;orthogonalLoop=1;jettySize=auto;html=1;dashed=1;dashPattern=1 4;fontSize=20;startArrow=oval;startFill=1;endArrow=classic;endFill=1;strokeWidth=2;exitX=0.25;exitY=0;exitDx=0;exitDy=0;exitPerimeter=0;" edge="1" parent="PQhwK7lnVZrkcBwygBA0-1" source="OgTv5IMcnwN7U33T0d0k-2" target="OgTv5IMcnwN7U33T0d0k-21">
          <mxGeometry relative="1" as="geometry">
            <mxPoint x="690" y="365.29999999999995" as="sourcePoint" />
          </mxGeometry>
        </mxCell>
        <mxCell id="OgTv5IMcnwN7U33T0d0k-20" value="" style="edgeStyle=orthogonalEdgeStyle;curved=1;rounded=1;orthogonalLoop=1;jettySize=auto;html=1;dashed=1;dashPattern=1 4;fontSize=20;startArrow=oval;startFill=1;endArrow=classic;endFill=1;strokeWidth=2;" edge="1" parent="PQhwK7lnVZrkcBwygBA0-1" source="OgTv5IMcnwN7U33T0d0k-21" target="OgTv5IMcnwN7U33T0d0k-23">
          <mxGeometry relative="1" as="geometry" />
        </mxCell>
        <mxCell id="OgTv5IMcnwN7U33T0d0k-21" value="Extract" style="whiteSpace=wrap;html=1;rounded=1;arcSize=50;align=center;verticalAlign=middle;strokeWidth=1;autosize=1;spacing=4;treeFolding=1;treeMoving=1;newEdgeStyle={&quot;edgeStyle&quot;:&quot;entityRelationEdgeStyle&quot;,&quot;startArrow&quot;:&quot;none&quot;,&quot;endArrow&quot;:&quot;none&quot;,&quot;segment&quot;:10,&quot;curved&quot;:1};labelBackgroundColor=none;fontSize=20;fillColor=#cdeb8b;strokeColor=#36393d;" vertex="1" parent="PQhwK7lnVZrkcBwygBA0-1">
          <mxGeometry x="-30" y="90" width="130" height="40" as="geometry" />
        </mxCell>
        <mxCell id="OgTv5IMcnwN7U33T0d0k-22" value="" style="edgeStyle=orthogonalEdgeStyle;curved=1;rounded=1;orthogonalLoop=1;jettySize=auto;html=1;dashed=1;dashPattern=1 4;fontSize=20;startArrow=oval;startFill=1;endArrow=classic;endFill=1;strokeWidth=2;" edge="1" parent="PQhwK7lnVZrkcBwygBA0-1" source="OgTv5IMcnwN7U33T0d0k-23" target="OgTv5IMcnwN7U33T0d0k-24">
          <mxGeometry relative="1" as="geometry" />
        </mxCell>
        <mxCell id="OgTv5IMcnwN7U33T0d0k-23" value="Transform" style="whiteSpace=wrap;html=1;rounded=1;arcSize=50;align=center;verticalAlign=middle;strokeWidth=1;autosize=1;spacing=4;treeFolding=1;treeMoving=1;newEdgeStyle={&quot;edgeStyle&quot;:&quot;entityRelationEdgeStyle&quot;,&quot;startArrow&quot;:&quot;none&quot;,&quot;endArrow&quot;:&quot;none&quot;,&quot;segment&quot;:10,&quot;curved&quot;:1};labelBackgroundColor=none;fontSize=20;fillColor=#cdeb8b;strokeColor=#36393d;" vertex="1" parent="PQhwK7lnVZrkcBwygBA0-1">
          <mxGeometry x="150" y="90" width="130" height="40" as="geometry" />
        </mxCell>
        <mxCell id="R5ZYdigww12FuL7uxKYt-5" value="" style="edgeStyle=orthogonalEdgeStyle;curved=1;rounded=1;orthogonalLoop=1;jettySize=auto;html=1;dashed=1;dashPattern=1 4;fontSize=20;startArrow=oval;startFill=1;endArrow=classic;endFill=1;strokeWidth=2;" edge="1" parent="PQhwK7lnVZrkcBwygBA0-1" source="OgTv5IMcnwN7U33T0d0k-24" target="R5ZYdigww12FuL7uxKYt-4">
          <mxGeometry relative="1" as="geometry" />
        </mxCell>
        <mxCell id="OgTv5IMcnwN7U33T0d0k-24" value="Prepare" style="whiteSpace=wrap;html=1;rounded=1;arcSize=50;align=center;verticalAlign=middle;strokeWidth=1;autosize=1;spacing=4;treeFolding=1;treeMoving=1;newEdgeStyle={&quot;edgeStyle&quot;:&quot;entityRelationEdgeStyle&quot;,&quot;startArrow&quot;:&quot;none&quot;,&quot;endArrow&quot;:&quot;none&quot;,&quot;segment&quot;:10,&quot;curved&quot;:1};labelBackgroundColor=none;fontSize=20;fillColor=#cdeb8b;strokeColor=#36393d;" vertex="1" parent="PQhwK7lnVZrkcBwygBA0-1">
          <mxGeometry x="330" y="90" width="130" height="40" as="geometry" />
        </mxCell>
        <mxCell id="R5ZYdigww12FuL7uxKYt-6" style="edgeStyle=orthogonalEdgeStyle;curved=1;rounded=1;orthogonalLoop=1;jettySize=auto;html=1;entryX=1;entryY=0.25;entryDx=0;entryDy=0;entryPerimeter=0;dashed=1;dashPattern=1 4;fontSize=20;startArrow=oval;startFill=1;endArrow=classic;endFill=1;strokeWidth=2;" edge="1" parent="PQhwK7lnVZrkcBwygBA0-1" source="R5ZYdigww12FuL7uxKYt-4" target="OgTv5IMcnwN7U33T0d0k-5">
          <mxGeometry relative="1" as="geometry">
            <Array as="points">
              <mxPoint x="600" y="238" />
            </Array>
          </mxGeometry>
        </mxCell>
        <mxCell id="R5ZYdigww12FuL7uxKYt-4" value="Upload" style="whiteSpace=wrap;html=1;rounded=1;arcSize=50;align=center;verticalAlign=middle;strokeWidth=1;autosize=1;spacing=4;treeFolding=1;treeMoving=1;newEdgeStyle={&quot;edgeStyle&quot;:&quot;entityRelationEdgeStyle&quot;,&quot;startArrow&quot;:&quot;none&quot;,&quot;endArrow&quot;:&quot;none&quot;,&quot;segment&quot;:10,&quot;curved&quot;:1};labelBackgroundColor=none;fontSize=20;fillColor=#cdeb8b;strokeColor=#36393d;" vertex="1" parent="PQhwK7lnVZrkcBwygBA0-1">
          <mxGeometry x="520" y="90" width="100" height="40" as="geometry" />
        </mxCell>
        <mxCell id="OgD3QhMC6-icERmIOo3a-0" value="" style="html=1;outlineConnect=0;whiteSpace=wrap;fillColor=#cdeb8b;shape=mxgraph.archimate3.application;appType=serv;archiType=rounded;labelBackgroundColor=none;fontSize=20;strokeColor=#36393d;" vertex="1" parent="PQhwK7lnVZrkcBwygBA0-1">
          <mxGeometry x="230" y="280" width="60" height="30" as="geometry" />
        </mxCell>
        <mxCell id="OgTv5IMcnwN7U33T0d0k-6" style="rounded=1;orthogonalLoop=1;jettySize=auto;html=1;fontSize=20;startArrow=oval;startFill=1;endArrow=oval;endFill=1;strokeWidth=2;exitX=1;exitY=0.5;exitDx=0;exitDy=0;exitPerimeter=0;edgeStyle=orthogonalEdgeStyle;curved=1;" edge="1" parent="PQhwK7lnVZrkcBwygBA0-1" source="OgD3QhMC6-icERmIOo3a-0" target="OgTv5IMcnwN7U33T0d0k-5">
          <mxGeometry relative="1" as="geometry">
            <mxPoint x="-30" y="265" as="sourcePoint" />
          </mxGeometry>
        </mxCell>
      </root>
    </mxGraphModel>
  </diagram>
</mxfile>
